<svg width="19" height="13" viewBox="0 0 19 13" fill="none" xmlns="http://www.w3.org/2000/svg">
<path d="M7.98467 12.8279C7.80961 12.8282 7.63619 12.794 7.47439 12.7272C7.31258 12.6604 7.16556 12.5623 7.04177 12.4385L1.38438 6.77974C1.25692 6.6568 1.15521 6.50971 1.08521 6.34705C1.0152 6.18439 0.978284 6.00941 0.976621 5.83233C0.974959 5.65525 1.00858 5.47961 1.07552 5.31567C1.14246 5.15172 1.24138 5.00275 1.36652 4.87744C1.49165 4.75213 1.64048 4.653 1.80433 4.58582C1.96819 4.51865 2.14378 4.48478 2.32086 4.48619C2.49794 4.4876 2.67297 4.52427 2.83573 4.59405C2.99849 4.66383 3.14573 4.76532 3.26884 4.89261L7.98334 9.6071L16.4721 1.12101C16.7222 0.870764 17.0614 0.730106 17.4152 0.729981C17.769 0.729855 18.1083 0.870274 18.3586 1.12035C18.6088 1.37042 18.7495 1.70966 18.7496 2.06344C18.7497 2.41722 18.6093 2.75656 18.3592 3.00681L8.92757 12.4385C8.80378 12.5623 8.65676 12.6604 8.49495 12.7272C8.33314 12.794 8.15973 12.8282 7.98467 12.8279V12.8279Z" fill="#8414A6"/>
</svg>
