<svg width="19" height="19" viewBox="0 0 19 19" fill="none" xmlns="http://www.w3.org/2000/svg">
<path d="M14.2873 7.87147L8.95551 2.53965C8.70963 2.28507 8.57358 1.9441 8.57665 1.59018C8.57973 1.23625 8.72169 0.8977 8.97196 0.647431C9.22223 0.397162 9.56078 0.255202 9.9147 0.252126C10.2686 0.249051 10.6096 0.385106 10.8642 0.630988L18.5002 8.26697C18.6259 8.39204 18.7258 8.54074 18.7939 8.70452C18.862 8.86829 18.8971 9.04392 18.8971 9.2213C18.8971 9.39868 18.862 9.57431 18.7939 9.73809C18.7258 9.90187 18.6259 10.0506 18.5002 10.1756L10.8642 17.8116C10.7397 17.9405 10.5907 18.0434 10.426 18.1141C10.2613 18.1849 10.0842 18.2221 9.90499 18.2237C9.72576 18.2252 9.54801 18.1911 9.38212 18.1232C9.21623 18.0553 9.06552 17.9551 8.93878 17.8283C8.81204 17.7016 8.71182 17.5509 8.64394 17.385C8.57607 17.2191 8.54192 17.0414 8.54348 16.8621C8.54504 16.6829 8.58227 16.5058 8.65302 16.3411C8.72376 16.1764 8.82659 16.0275 8.95551 15.903L14.2873 10.5711H1.34788C0.989879 10.5711 0.646545 10.4289 0.393403 10.1758C0.140261 9.92263 -0.00195312 9.5793 -0.00195312 9.2213C-0.00195312 8.86331 0.140261 8.51997 0.393403 8.26683C0.646545 8.01369 0.989879 7.87147 1.34788 7.87147H14.2873V7.87147Z" fill="#2563EB"/>
</svg>
