<svg width="176" height="50" viewBox="0 0 176 50" fill="none" xmlns="http://www.w3.org/2000/svg">
<g clip-path="url(#clip0_330_6681)">
<path d="M9.112 26.224C7.46933 26.224 5.99733 25.9573 4.696 25.424C3.39467 24.8907 2.34933 24.1013 1.56 23.056C0.792 22.0107 0.386667 20.752 0.344 19.28H6.168C6.25333 20.112 6.54133 20.752 7.032 21.2C7.52267 21.6267 8.16267 21.84 8.952 21.84C9.76267 21.84 10.4027 21.6587 10.872 21.296C11.3413 20.912 11.576 20.3893 11.576 19.728C11.576 19.1733 11.384 18.7147 11 18.352C10.6373 17.9893 10.1787 17.6907 9.624 17.456C9.09067 17.2213 8.32267 16.9547 7.32 16.656C5.86933 16.208 4.68533 15.76 3.768 15.312C2.85067 14.864 2.06133 14.2027 1.4 13.328C0.738667 12.4533 0.408 11.312 0.408 9.904C0.408 7.81333 1.16533 6.18133 2.68 5.008C4.19467 3.81333 6.168 3.216 8.6 3.216C11.0747 3.216 13.0693 3.81333 14.584 5.008C16.0987 6.18133 16.9093 7.824 17.016 9.936H11.096C11.0533 9.21067 10.7867 8.64533 10.296 8.24C9.80533 7.81333 9.176 7.6 8.408 7.6C7.74667 7.6 7.21333 7.78133 6.808 8.144C6.40267 8.48533 6.2 8.98667 6.2 9.648C6.2 10.3733 6.54133 10.9387 7.224 11.344C7.90667 11.7493 8.97333 12.1867 10.424 12.656C11.8747 13.1467 13.048 13.616 13.944 14.064C14.8613 14.512 15.6507 15.1627 16.312 16.016C16.9733 16.8693 17.304 17.968 17.304 19.312C17.304 20.592 16.9733 21.7547 16.312 22.8C15.672 23.8453 14.7333 24.6773 13.496 25.296C12.2587 25.9147 10.7973 26.224 9.112 26.224ZM31.5835 26L26.1435 18.512V26H20.6715V2.32H26.1435V15.408L31.5515 8.144H38.3035L30.8795 17.104L38.3675 26H31.5835ZM43.2048 6.288C42.2448 6.288 41.4554 6.01067 40.8368 5.456C40.2394 4.88 39.9408 4.176 39.9408 3.344C39.9408 2.49067 40.2394 1.78667 40.8368 1.232C41.4554 0.655998 42.2448 0.367998 43.2048 0.367998C44.1434 0.367998 44.9114 0.655998 45.5088 1.232C46.1274 1.78667 46.4368 2.49067 46.4368 3.344C46.4368 4.176 46.1274 4.88 45.5088 5.456C44.9114 6.01067 44.1434 6.288 43.2048 6.288ZM45.9248 8.144V26H40.4528V8.144H45.9248ZM55.3623 2.32V26H49.8903V2.32H55.3623ZM64.7998 2.32V26H59.3278V2.32H64.7998ZM76.8933 26.224C75.2506 26.224 73.7786 25.9573 72.4773 25.424C71.1759 24.8907 70.1306 24.1013 69.3413 23.056C68.5733 22.0107 68.1679 20.752 68.1253 19.28H73.9493C74.0346 20.112 74.3226 20.752 74.8133 21.2C75.3039 21.6267 75.9439 21.84 76.7333 21.84C77.5439 21.84 78.1839 21.6587 78.6533 21.296C79.1226 20.912 79.3573 20.3893 79.3573 19.728C79.3573 19.1733 79.1653 18.7147 78.7813 18.352C78.4186 17.9893 77.9599 17.6907 77.4053 17.456C76.8719 17.2213 76.1039 16.9547 75.1013 16.656C73.6506 16.208 72.4666 15.76 71.5493 15.312C70.6319 14.864 69.8426 14.2027 69.1813 13.328C68.5199 12.4533 68.1893 11.312 68.1893 9.904C68.1893 7.81333 68.9466 6.18133 70.4613 5.008C71.9759 3.81333 73.9493 3.216 76.3813 3.216C78.8559 3.216 80.8506 3.81333 82.3653 5.008C83.8799 6.18133 84.6906 7.824 84.7973 9.936H78.8773C78.8346 9.21067 78.5679 8.64533 78.0773 8.24C77.5866 7.81333 76.9573 7.6 76.1892 7.6C75.5279 7.6 74.9946 7.78133 74.5893 8.144C74.1839 8.48533 73.9813 8.98667 73.9813 9.648C73.9813 10.3733 74.3226 10.9387 75.0052 11.344C75.6879 11.7493 76.7546 12.1867 78.2053 12.656C79.6559 13.1467 80.8293 13.616 81.7253 14.064C82.6426 14.512 83.4319 15.1627 84.0933 16.016C84.7546 16.8693 85.0853 17.968 85.0853 19.312C85.0853 20.592 84.7546 21.7547 84.0933 22.8C83.4533 23.8453 82.5146 24.6773 81.2773 25.296C80.0399 25.9147 78.5786 26.224 76.8933 26.224ZM106.693 8.144L95.4928 34.48H89.6048L93.7008 25.392L86.4367 8.144H92.5488L96.6768 19.312L100.773 8.144H106.693ZM119.552 7.952C121.642 7.952 123.306 8.63467 124.544 10C125.802 11.344 126.432 13.2 126.432 15.568V26H120.992V16.304C120.992 15.1093 120.682 14.1813 120.064 13.52C119.445 12.8587 118.613 12.528 117.568 12.528C116.522 12.528 115.69 12.8587 115.072 13.52C114.453 14.1813 114.144 15.1093 114.144 16.304V26H108.672V8.144H114.144V10.512C114.698 9.72267 115.445 9.104 116.384 8.656C117.322 8.18667 118.378 7.952 119.552 7.952ZM129.146 17.072C129.146 15.216 129.519 13.5947 130.266 12.208C131.034 10.8213 132.09 9.75467 133.434 9.008C134.799 8.26133 136.357 7.888 138.106 7.888C140.346 7.888 142.213 8.47467 143.706 9.648C145.221 10.8213 146.213 12.4747 146.682 14.608H140.858C140.367 13.2427 139.418 12.56 138.01 12.56C137.007 12.56 136.207 12.9547 135.61 13.744C135.013 14.512 134.714 15.6213 134.714 17.072C134.714 18.5227 135.013 19.6427 135.61 20.432C136.207 21.2 137.007 21.584 138.01 21.584C139.418 21.584 140.367 20.9013 140.858 19.536H146.682C146.213 21.6267 145.221 23.2693 143.706 24.464C142.191 25.6587 140.325 26.256 138.106 26.256C136.357 26.256 134.799 25.8827 133.434 25.136C132.09 24.3893 131.034 23.3227 130.266 21.936C129.519 20.5493 129.146 18.928 129.146 17.072Z" fill="#0EB2FF"/>
<path d="M95.056 37.736C95.056 35.5173 95.536 33.544 96.496 31.816C97.456 30.0667 98.7893 28.712 100.496 27.752C102.224 26.7707 104.176 26.28 106.352 26.28C109.019 26.28 111.301 26.984 113.2 28.392C115.099 29.8 116.368 31.72 117.008 34.152H110.992C110.544 33.2133 109.904 32.4987 109.072 32.008C108.261 31.5173 107.333 31.272 106.288 31.272C104.603 31.272 103.237 31.8587 102.192 33.032C101.147 34.2053 100.624 35.7733 100.624 37.736C100.624 39.6987 101.147 41.2667 102.192 42.44C103.237 43.6133 104.603 44.2 106.288 44.2C107.333 44.2 108.261 43.9547 109.072 43.464C109.904 42.9733 110.544 42.2587 110.992 41.32H117.008C116.368 43.752 115.099 45.672 113.2 47.08C111.301 48.4667 109.019 49.16 106.352 49.16C104.176 49.16 102.224 48.68 100.496 47.72C98.7893 46.7387 97.456 45.384 96.496 43.656C95.536 41.928 95.056 39.9547 95.056 37.736ZM132.009 30.952C134.057 30.952 135.699 31.6347 136.937 33C138.174 34.344 138.793 36.2 138.793 38.568V49H133.353V39.304C133.353 38.1093 133.043 37.1813 132.425 36.52C131.806 35.8587 130.974 35.528 129.929 35.528C128.883 35.528 128.051 35.8587 127.433 36.52C126.814 37.1813 126.505 38.1093 126.505 39.304V49H121.033V25.32H126.505V33.544C127.059 32.7547 127.817 32.1253 128.777 31.656C129.737 31.1867 130.814 30.952 132.009 30.952ZM142.181 40.04C142.181 38.2053 142.522 36.5947 143.205 35.208C143.909 33.8213 144.858 32.7547 146.053 32.008C147.247 31.2613 148.581 30.888 150.053 30.888C151.311 30.888 152.41 31.144 153.349 31.656C154.309 32.168 155.045 32.84 155.557 33.672V31.144H161.029V49H155.557V46.472C155.023 47.304 154.277 47.976 153.317 48.488C152.378 49 151.279 49.256 150.021 49.256C148.57 49.256 147.247 48.8827 146.053 48.136C144.858 47.368 143.909 46.2907 143.205 44.904C142.522 43.496 142.181 41.8747 142.181 40.04ZM155.557 40.072C155.557 38.7067 155.173 37.6293 154.405 36.84C153.658 36.0507 152.741 35.656 151.653 35.656C150.565 35.656 149.637 36.0507 148.869 36.84C148.122 37.608 147.749 38.6747 147.749 40.04C147.749 41.4053 148.122 42.4933 148.869 43.304C149.637 44.0933 150.565 44.488 151.653 44.488C152.741 44.488 153.658 44.0933 154.405 43.304C155.173 42.5147 155.557 41.4373 155.557 40.072ZM175.613 44.36V49H172.829C170.845 49 169.298 48.52 168.189 47.56C167.079 46.5787 166.525 44.9893 166.525 42.792V35.688H164.349V31.144H166.525V26.792H171.997V31.144H175.581V35.688H171.997V42.856C171.997 43.3893 172.125 43.7733 172.381 44.008C172.637 44.2427 173.063 44.36 173.661 44.36H175.613Z" fill="url(#paint0_linear_330_6681)"/>
</g>
<defs>
<linearGradient id="paint0_linear_330_6681" x1="134" y1="33.5" x2="135.5" y2="55" gradientUnits="userSpaceOnUse">
<stop stop-color="#0EB2FF"/>
<stop offset="1" stop-color="#8414A6"/>
</linearGradient>
<clipPath id="clip0_330_6681">
<rect width="176" height="50" fill="white"/>
</clipPath>
</defs>
</svg>
